<?xml version="1.0" standalone="no"?>
<!DOCTYPE svg PUBLIC "-//W3C//DTD SVG 20010904//EN"
 "http://www.w3.org/TR/2001/REC-SVG-20010904/DTD/svg10.dtd">
<svg version="1.0" xmlns="http://www.w3.org/2000/svg"
 width="208.000000pt" height="208.000000pt" viewBox="0 0 208.000000 208.000000"
 preserveAspectRatio="xMidYMid meet">
<metadata>
Created by potrace 1.14, written by Peter Selinger 2001-2017
</metadata>
<g transform="translate(0.000000,208.000000) scale(0.100000,-0.100000)"
fill="#000000" stroke="none">
<path d="M919 1693 c-2 -35 -3 -41 -10 -48 -4 -3 -10 -1 -15 6 -4 7 -3 10 3 6
5 -3 10 0 10 7 0 7 -6 13 -12 13 -7 0 -12 -7 -12 -16 0 -57 -3 -63 -23 -58
-16 4 -20 0 -21 -21 -3 -63 -4 -67 -21 -64 -17 3 -24 -24 -19 -67 2 -11 0 -11
-12 0 -8 8 -12 18 -9 23 3 5 0 6 -7 2 -9 -6 -9 -11 0 -22 8 -10 8 -14 0 -14
-6 0 -11 -11 -11 -24 0 -20 -4 -23 -22 -19 -22 5 -22 5 -4 -9 15 -12 16 -17 6
-23 -9 -5 -11 -4 -6 3 4 7 2 12 -3 12 -11 0 -15 -12 -11 -43 1 -12 -4 -17 -16
-15 -10 2 -18 -4 -19 -14 -4 -24 12 -32 23 -12 6 12 9 7 10 -18 1 -44 7 -69
15 -68 4 0 10 0 13 0 4 0 1 6 -5 13 -8 10 -7 14 2 14 7 0 13 -15 14 -35 2 -34
19 -56 35 -46 4 3 8 0 8 -6 0 -7 -7 -10 -17 -6 -17 6 -17 5 0 -8 9 -7 17 -23
17 -35 0 -12 4 -19 10 -16 6 3 10 1 10 -5 0 -6 5 -8 11 -4 6 3 10 -1 9 -12 -4
-39 1 -53 20 -59 15 -5 20 -15 20 -38 0 -18 -4 -27 -8 -22 -4 6 -25 11 -46 12
-26 1 -35 -2 -25 -8 12 -7 12 -9 0 -9 -8 0 -11 -3 -8 -6 4 -4 12 -2 19 3 11 9
58 1 58 -9 0 -2 -32 -4 -72 -6 -53 -2 -75 -8 -85 -20 -10 -13 -12 -14 -8 -2 4
11 -1 16 -15 17 -22 2 -26 -7 -10 -23 12 -12 10 -12 -57 -16 -34 -1 -40 -4
-31 -15 7 -9 7 -13 -1 -14 -6 -1 -15 -3 -21 -4 -5 -1 -19 -3 -30 -4 -14 -1
-20 -7 -18 -18 2 -13 -4 -18 -22 -19 -14 0 -24 -6 -22 -13 2 -9 -3 -9 -16 -2
-14 7 -19 6 -19 -4 0 -8 5 -11 11 -8 6 4 5 0 -2 -9 -7 -9 -22 -15 -33 -13 -13
3 -19 -2 -19 -16 0 -17 -11 -24 -34 -20 -5 1 -6 -7 -3 -19 5 -19 -3 -25 -32
-20 -8 1 -12 -4 -8 -14 7 -18 -18 -41 -33 -31 -8 5 -10 -1 -8 -16 2 -16 -2
-23 -10 -21 -10 2 -10 -2 -2 -18 13 -25 -4 -27 -20 -2 -11 16 -11 16 -6 0 3
-10 2 -18 -3 -18 -4 0 -7 -10 -7 -22 1 -16 -4 -22 -15 -20 -13 2 -17 -6 -17
-38 -1 -37 6 -45 30 -41 5 0 7 -2 7 -7 -5 -32 0 -33 242 -32 133 1 239 4 235
7 -3 3 1 21 9 40 8 18 10 31 5 28 -9 -6 -13 15 -13 67 0 10 -5 14 -13 11 -8
-3 -14 -9 -14 -15 0 -5 5 -6 12 -2 7 4 8 3 4 -5 -12 -18 -23 -4 -24 30 0 17
-6 37 -13 43 -9 8 -10 8 -5 -1 5 -9 2 -11 -8 -7 -8 3 -13 14 -11 25 2 10 0 19
-5 19 -5 0 -7 9 -5 20 3 16 -2 20 -23 22 -46 2 -50 3 -58 11 -4 4 -2 7 5 7 7
0 9 5 6 10 -9 14 9 12 24 -2 10 -11 12 -10 9 2 -2 8 3 14 10 13 16 -4 15 2 -4
21 -14 14 -14 16 0 16 8 0 20 -8 26 -17 11 -17 11 -17 6 0 -5 17 4 20 65 20 9
0 16 5 16 12 0 6 -6 12 -13 12 -7 0 -10 -5 -7 -10 3 -6 1 -7 -5 -3 -21 13 -12
24 21 25 119 4 169 9 180 21 10 10 8 10 -10 1 -18 -9 -23 -9 -23 1 0 9 -2 10
-8 2 -5 -9 -10 -9 -18 0 -9 9 5 13 58 14 45 1 67 -1 63 -8 -3 -5 -1 -10 4 -10
6 0 10 -6 8 -12 -1 -7 6 -12 16 -10 13 2 17 -5 18 -30 1 -18 1 -36 0 -40 0 -5
8 -8 19 -8 13 0 20 -7 20 -18 0 -10 6 -24 13 -31 6 -8 7 -11 1 -8 -6 3 -11 0
-11 -8 0 -10 5 -11 17 -5 12 7 16 3 18 -17 3 -34 10 -43 30 -37 14 5 15 4 2
-5 -10 -7 -11 -11 -2 -11 7 0 12 -13 12 -29 0 -21 6 -30 21 -34 15 -4 20 -11
16 -21 -4 -9 -3 -16 2 -16 4 0 7 -10 7 -22 -1 -16 4 -22 15 -20 10 1 19 -6 22
-18 5 -20 11 -21 259 -20 l253 1 3 61 c3 57 2 60 -14 47 -10 -8 -15 -9 -11 -2
4 6 3 13 -3 15 -5 1 -10 18 -12 36 -3 37 -12 49 -24 31 -4 -7 -3 -9 3 -6 5 3
10 0 10 -7 0 -7 -6 -13 -12 -13 -7 0 -12 7 -12 16 0 45 -4 62 -12 56 -12 -7
-43 24 -36 36 4 5 -4 9 -16 9 -16 0 -20 5 -16 20 4 16 0 20 -19 20 -17 0 -24
6 -24 20 0 11 -3 19 -7 19 -21 -3 -33 2 -33 16 0 8 -3 15 -7 16 -5 0 -17 3
-28 5 -11 2 -27 5 -36 6 -10 1 -14 9 -11 20 4 15 -2 18 -33 18 -28 0 -38 5
-42 20 -3 13 -14 20 -28 20 -31 0 -56 10 -50 20 8 13 -27 21 -95 22 -34 1 -63
5 -66 10 -3 4 -10 8 -15 8 -6 0 -7 -5 -3 -12 4 -7 3 -8 -5 -4 -16 10 -4 25 19
23 10 -1 16 -5 14 -9 -6 -9 32 -5 41 3 6 6 -5 9 -57 12 -21 1 -38 5 -38 9 0 3
-8 4 -18 1 -17 -4 -21 4 -25 59 -1 10 -8 17 -16 15 -10 -1 -17 10 -22 33 -4
19 -6 37 -4 41 2 3 -2 6 -10 6 -15 0 -15 -17 0 -30 6 -5 4 -7 -4 -5 -8 3 -17
20 -19 39 -4 34 -21 75 -22 52 0 -7 -5 -13 -11 -13 -5 0 -8 3 -5 8 2 4 1 23
-3 42 -5 24 -12 34 -23 32 -13 -2 -17 9 -20 53 -4 69 -2 74 25 67 20 -5 21 -4
7 13 -8 10 -10 16 -5 13 6 -4 15 5 22 18 6 13 7 22 2 18 -5 -3 -9 0 -9 5 0 6
9 11 19 11 16 0 20 8 23 38 2 25 8 37 18 37 8 1 14 7 12 15 -3 11 0 11 12 1 8
-7 20 -10 26 -6 6 4 10 -10 10 -39 0 -25 4 -46 10 -46 5 0 7 8 4 18 -5 14 -3
14 10 -2 15 -18 19 -35 19 -78 0 -9 2 -17 6 -16 21 2 31 -5 31 -22 0 -14 7
-20 21 -20 13 0 20 -6 18 -17 -4 -45 1 -64 18 -61 11 2 19 -5 21 -17 2 -11 11
-28 20 -37 8 -10 10 -18 4 -18 -6 0 -13 6 -15 13 -3 7 -6 5 -6 -5 -1 -12 6
-18 19 -18 19 0 23 -10 23 -62 0 -10 4 -15 8 -12 5 3 7 9 4 14 -3 4 1 10 9 13
8 3 13 -1 13 -11 0 -52 4 -62 22 -62 14 0 19 -6 16 -20 -2 -11 0 -22 5 -25 5
-3 7 -12 3 -21 -3 -8 -2 -14 3 -13 22 4 34 -2 34 -18 0 -10 11 -23 25 -30 14
-6 23 -8 21 -4 -4 6 18 11 61 14 12 0 14 37 1 37 -4 0 -11 -8 -17 -17 -9 -16
-10 -16 -8 4 0 12 4 20 7 18 3 -2 12 0 19 5 15 9 6 30 -12 30 -7 0 -6 -4 3
-10 9 -6 10 -10 3 -10 -16 0 -22 12 -25 48 -2 26 -5 29 -20 21 -10 -6 -18 -6
-17 -2 6 37 -3 71 -20 76 -14 3 -21 15 -23 38 -2 21 -8 34 -17 34 -15 0 -30
38 -25 68 2 18 -11 23 -20 8 -4 -5 -1 -11 6 -13 8 -3 7 -6 -4 -10 -10 -4 -15
-1 -15 10 0 64 -3 70 -25 65 -22 -5 -22 -5 -4 9 15 12 16 17 6 23 -9 5 -11 4
-6 -3 4 -7 2 -12 -3 -12 -6 0 -11 13 -11 29 0 21 -6 30 -21 34 -14 4 -20 11
-16 20 3 8 3 18 -1 22 -4 4 -7 11 -7 15 0 5 -8 15 -18 22 -9 7 -18 27 -20 44
-1 17 -7 31 -14 31 -7 0 -9 -5 -6 -10 3 -6 1 -7 -5 -3 -7 4 -12 20 -12 36 0
24 -3 27 -22 23 -22 -5 -22 -5 -4 9 15 12 16 17 6 23 -9 5 -11 4 -6 -3 4 -7 2
-12 -3 -12 -6 0 -11 12 -11 26 0 17 -6 28 -20 31 -11 3 -20 14 -20 24 0 15 -7
18 -40 16 -34 -2 -40 -6 -41 -24z m161 -308 c0 -8 -4 -15 -9 -15 -13 0 -22 16
-14 24 11 11 23 6 23 -9z m133 -490 c-3 -9 -8 -14 -10 -11 -3 3 -2 9 2 15 9
16 15 13 8 -4z m25 -104 c2 -1 0 -6 -3 -11 -5 -8 -11 -8 -19 -1 -9 8 -13 7
-13 -2 0 -7 10 -13 21 -14 76 -4 96 -7 96 -15 0 -5 -4 -7 -9 -4 -5 3 -11 0
-14 -7 -3 -8 7 -13 27 -14 17 -2 32 -7 34 -13 2 -6 11 -6 25 1 19 9 19 7 -3
-11 l-25 -22 25 3 c15 3 24 -1 23 -8 -1 -6 4 -17 12 -23 11 -9 15 -9 15 -1 0
6 -5 11 -11 11 -5 0 -7 5 -4 10 3 6 11 10 16 10 6 0 8 -4 4 -9 -3 -5 1 -16 9
-24 8 -8 12 -18 8 -23 -4 -5 2 -2 12 6 18 14 19 13 14 -6 -4 -14 1 -25 14 -33
12 -7 17 -8 13 -2 -3 6 -1 11 4 11 6 0 12 -9 12 -20 2 -33 4 -38 12 -47 5 -4
7 -3 5 4 -1 6 1 12 6 12 6 1 11 -5 12 -12 1 -12 -27 -14 -156 -15 -139 0 -157
2 -157 17 0 47 -5 59 -23 64 -18 5 -27 35 -21 70 1 4 -6 7 -15 5 -16 -3 -21 7
-26 60 -2 17 -7 22 -20 19 -14 -4 -18 1 -18 20 0 23 2 24 58 20 31 -3 58 -5
60 -6z m232 -15 c0 -3 -4 -8 -10 -11 -5 -3 -10 -1 -10 4 0 6 5 11 10 11 6 0
10 -2 10 -4z m-439 -39 c-10 -9 -11 -8 -5 6 3 10 9 15 12 12 3 -3 0 -11 -7
-18z m-504 -72 c4 -4 2 -5 -5 -1 -9 6 -11 2 -7 -16 3 -12 7 -33 8 -45 1 -16 5
-19 17 -13 12 6 15 1 17 -31 l3 -39 -78 0 c-75 0 -102 9 -102 34 0 7 3 7 8 0
5 -9 11 -8 20 2 7 8 9 14 4 14 -5 0 -9 7 -9 15 0 20 7 19 23 -2 13 -17 14 -17
8 0 -4 10 -1 17 6 17 6 0 8 5 5 10 -3 6 0 10 7 10 9 0 9 3 -2 10 -12 8 -8 10
15 11 17 1 33 1 37 0 4 0 5 6 1 15 -5 13 -7 13 -14 2 -5 -7 -9 -8 -9 -2 0 22
30 28 47 9z m-292 -173 c-3 -3 -11 0 -18 7 -9 10 -8 11 6 5 10 -3 15 -9 12
-12z m1475 -67 c0 -2 -6 -5 -13 -8 -8 -3 -14 1 -14 8 0 7 6 11 14 8 7 -3 13
-6 13 -8z"/>
<path d="M1256 551 c-4 -5 -2 -12 3 -15 5 -4 12 -2 15 3 4 5 2 12 -3 15 -5 4
-12 2 -15 -3z"/>
<path d="M530 570 c-9 -6 -10 -10 -3 -10 6 0 15 5 18 10 8 12 4 12 -15 0z"/>
<path d="M1260 911 c0 -6 4 -13 10 -16 6 -3 7 1 4 9 -7 18 -14 21 -14 7z"/>
<path d="M1377 896 c-4 -10 -1 -13 8 -9 8 3 12 9 9 14 -7 12 -11 11 -17 -5z"/>
<path d="M1335 871 c-6 -11 13 -26 22 -17 4 3 1 6 -6 6 -7 0 -9 5 -6 10 3 6 4
10 1 10 -3 0 -7 -4 -11 -9z"/>
<path d="M1415 831 c-3 -5 0 -13 6 -17 7 -4 9 -3 5 4 -3 5 0 13 6 15 9 4 10 6
1 6 -6 1 -14 -3 -18 -8z"/>
<path d="M746 453 c-6 -14 -5 -15 5 -6 7 7 10 15 7 18 -3 3 -9 -2 -12 -12z"/>
<path d="M207 415 c3 -8 9 -12 14 -9 12 7 11 11 -5 17 -10 4 -13 1 -9 -8z"/>
</g>
</svg>
